#N canvas 720 22 720 415 10;
#X obj 184 247 *~;
#X obj 184 79 inlet~;
#X obj 184 299 outlet~;
#X obj 239 178 tabread exp_env;
#X obj 239 153 line;
#X msg 199 136 0;
#X obj 239 230 line~;
#X obj 239 63 t b;
#X obj 239 21 r strike;
#X msg 239 127 64 \$1;
#X obj 239 85 \$2;
#X obj 184 273 *~ \$1;
#X obj 239 42 delay 64;
#X msg 239 204 \$1 32;
#X obj 239 106 * 250;
#X connect 0 0 11 0;
#X connect 1 0 0 0;
#X connect 3 0 13 0;
#X connect 4 0 3 0;
#X connect 5 0 4 0;
#X connect 6 0 0 1;
#X connect 7 0 10 0;
#X connect 8 0 5 0;
#X connect 8 0 12 0;
#X connect 9 0 4 0;
#X connect 10 0 14 0;
#X connect 11 0 2 0;
#X connect 12 0 7 0;
#X connect 13 0 6 0;
#X connect 14 0 9 0;
