#N canvas 0 22 1440 852 10;
#X obj 133 435 osc~;
#X floatatom 133 304 5 0 0 0 - - -;
#X obj 93 302 bng 30 250 50 0 strike empty empty 17 7 0 10 -262144
-1 -1;
#X obj 133 218 loadbang;
#X msg 133 238 44.5;
#X obj 245 357 r f_hz;
#X obj 245 379 * 2.02;
#X obj 366 386 r f_hz;
#X obj 366 408 * 2.67;
#X obj 133 410 +~;
#X obj 176 393 osc~ 29;
#X obj 133 458 *~;
#X obj 133 511 *~;
#X obj 148 488 osc~ 1.67;
#X obj 245 463 osc~;
#X obj 245 439 +~;
#X obj 245 487 *~;
#X obj 245 414 +~;
#X obj 245 513 *~;
#X obj 294 422 osc~ 1.67;
#X obj 294 397 osc~ 15;
#X obj 366 482 osc~;
#X obj 366 457 +~;
#X obj 366 505 *~;
#X obj 409 440 osc~ 12.5;
#X obj 483 385 r f_hz;
#X obj 483 481 osc~;
#X obj 483 456 +~;
#X obj 483 504 *~;
#X obj 483 407 * 5.32;
#X obj 526 487 osc~ 32;
#X obj 526 439 osc~ 21;
#X obj 593 386 r f_hz;
#X obj 593 482 osc~;
#X obj 593 457 +~;
#X obj 593 505 *~;
#X obj 593 408 * 5.84;
#X obj 636 440 osc~ 15;
#X obj 699 385 r f_hz;
#X obj 699 481 osc~;
#X obj 699 456 +~;
#X obj 699 504 *~;
#X obj 699 407 * 6.6;
#X obj 742 439 osc~ 20;
#X obj 806 386 r f_hz;
#X obj 806 482 osc~;
#X obj 806 457 +~;
#X obj 806 505 *~;
#X obj 849 440 osc~ 20;
#X obj 806 408 * 8.83;
#X obj 916 385 r f_hz;
#X obj 916 481 osc~;
#X obj 916 456 +~;
#X obj 916 407 * 9.98;
#X obj 1026 386 r f_hz;
#X obj 1026 482 osc~;
#X obj 1026 457 +~;
#X obj 1026 408 * 14.09;
#X obj 1069 440 osc~ 19;
#X obj 1026 508 *~;
#X obj 1069 491 osc~ 10;
#X obj 959 439 osc~ 29;
#N canvas 720 22 720 415 exp_env 0;
#N canvas 0 22 450 300 (subpatch) 0;
#X array exp_env 64 float 1;
#A 0 0.5 0.25 0.125 0.0625 0.03125 0.015625 0.0078125 0.00390625 0.00195312
0.000976562 0.000488281 0.000244141 0.00012207 6.10352e-05 3.05176e-05
1.52588e-05 7.62939e-06 3.8147e-06 1.90735e-06 9.53674e-07 4.76837e-07
2.38419e-07 1.19209e-07 5.96046e-08 2.98023e-08 1.49012e-08 7.45058e-09
3.72529e-09 1.86265e-09 9.31323e-10 4.65661e-10 2.32831e-10 1.16415e-10
5.82077e-11 2.91038e-11 1.45519e-11 7.27596e-12 3.63798e-12 1.81899e-12
9.09495e-13 4.54747e-13 2.27374e-13 1.13687e-13 5.68434e-14 2.84217e-14
1.42109e-14 7.10543e-15 3.55271e-15 1.77636e-15 8.88178e-16 4.44089e-16
2.22045e-16 1.11022e-16 5.55112e-17 2.77556e-17 1.38778e-17 6.93889e-18
3.46945e-18 1.73472e-18 8.67362e-19 4.33681e-19 2.1684e-19 1.0842e-19
5.42101e-20;
#X coords 0 1 63 0 200 140 1;
#X restore 306 140 graph;
#X obj 122 250 tabwrite exp_env;
#X obj 157 206 bng 15 250 50 0 empty empty empty 17 7 0 10 -262144
-1 -1;
#X obj 122 179 expr ($f1 - ($f1/2));
#X obj 122 156 f;
#X obj 122 110 t b;
#X msg 137 133 64;
#X obj 122 205 / 64;
#X obj 157 226 kalashnikov 64;
#X connect 2 0 8 0;
#X connect 3 0 4 1;
#X connect 3 0 7 0;
#X connect 4 0 3 0;
#X connect 5 0 4 0;
#X connect 6 0 4 1;
#X connect 7 0 1 0;
#X connect 8 1 1 1;
#X connect 8 1 5 0;
#X restore 133 198 pd exp_env;
#X text 137 42 Anis Haron | www.anisharon.com;
#X obj 133 544 exp_env 0.99 100;
#X obj 245 542 exp_env 0.9 85;
#X obj 366 541 exp_env 0.99 95;
#X obj 483 540 exp_env 0.25 55;
#X obj 593 541 exp_env 0.05 65;
#X obj 699 540 exp_env 0.03 55;
#X obj 806 541 exp_env 0.025 45;
#X obj 916 540 exp_env 0.015 65;
#X obj 1026 541 exp_env 0.005 60;
#X text 136 81 Gong ageng synth. Based on Lydia Ayers & Andrew Horner's
paper \, SYNTHESIZING A JAVANESE GONG AGENG.;
#X obj 133 573 s~ out1;
#X obj 245 573 s~ out2;
#X obj 366 573 s~ out3;
#X obj 483 573 s~ out4;
#X obj 593 573 s~ out5;
#X obj 699 573 s~ out6;
#X obj 806 573 s~ out7;
#X obj 916 573 s~ out8;
#X obj 1026 573 s~ out9;
#X floatatom 159 665 5 0 0 0 - - -;
#X floatatom 130 725 5 0 0 0 - - -;
#X obj 130 703 abs;
#X obj 130 681 - 1;
#X obj 162 637 hsl 128 15 0 1 0 0 empty empty empty -2 -8 0 10 -262144
-1 -1 6600 1;
#X obj 159 685 s dry;
#X obj 130 746 s wet;
#N canvas 0 22 720 415 OUTPUT 0;
#X obj 344 192 freeverb~;
#X obj 265 328 dac~;
#X obj 262 10 r~ out1;
#X obj 272 30 r~ out2;
#X obj 282 50 r~ out3;
#X obj 292 70 r~ out4;
#X obj 372 10 r~ out5;
#X obj 382 30 r~ out6;
#X obj 392 50 r~ out7;
#X obj 402 70 r~ out8;
#X obj 412 90 r~ out9;
#X obj 456 159 r wet;
#X obj 456 199 line~;
#X msg 456 179 \$1 20;
#X obj 425 226 *~;
#X obj 344 226 *~;
#X obj 296 185 line~;
#X msg 296 165 \$1 20;
#X obj 265 202 *~;
#X obj 296 145 r dry;
#X obj 440 272 limiter~;
#X obj 359 272 limiter~;
#X obj 344 248 z~ 64;
#X obj 265 231 z~ 64;
#X obj 425 249 z~ 64;
#X obj 280 254 limiter~;
#X obj 425 295 *~;
#X obj 344 293 *~;
#X obj 265 276 *~;
#X connect 0 0 15 0;
#X connect 0 1 14 0;
#X connect 2 0 0 0;
#X connect 2 0 18 0;
#X connect 3 0 0 0;
#X connect 3 0 18 0;
#X connect 4 0 0 0;
#X connect 4 0 18 0;
#X connect 5 0 0 0;
#X connect 6 0 0 1;
#X connect 6 0 18 0;
#X connect 7 0 0 1;
#X connect 7 0 18 0;
#X connect 8 0 0 1;
#X connect 8 0 18 0;
#X connect 9 0 0 1;
#X connect 9 0 18 0;
#X connect 10 0 0 1;
#X connect 10 0 18 0;
#X connect 11 0 13 0;
#X connect 12 0 14 1;
#X connect 12 0 15 1;
#X connect 13 0 12 0;
#X connect 14 0 24 0;
#X connect 14 0 20 0;
#X connect 15 0 22 0;
#X connect 15 0 21 0;
#X connect 16 0 18 1;
#X connect 17 0 16 0;
#X connect 18 0 23 0;
#X connect 18 0 25 0;
#X connect 19 0 17 0;
#X connect 20 0 26 1;
#X connect 21 0 27 1;
#X connect 22 0 27 0;
#X connect 23 0 28 0;
#X connect 24 0 26 0;
#X connect 25 0 28 1;
#X connect 26 0 1 1;
#X connect 27 0 1 0;
#X connect 28 0 1 0;
#X connect 28 0 1 1;
#X restore 132 601 pd OUTPUT;
#X text 296 637 DRY;
#X text 134 637 WET;
#N canvas 0 22 450 300 intervals 0;
#X obj 274 145 expr pow(2.0 \, $f1/9.0);
#X obj 237 68 bng 15 250 50 0 empty empty empty 17 7 0 10 -262144 -1
-1;
#X obj 123 217 tabwrite intervals;
#N canvas 0 22 450 300 (subpatch) 0;
#X array intervals 9 float 3;
#A 0 1.08006 1.16653 1.25992 1.36079 1.46973 1.5874 1.71449 1.85175
2;
#X coords 0 2 9 1 200 140 1;
#X restore 26 67 graph;
#X obj 237 91 kalashnikov 9;
#X obj 274 121 + 1;
#X obj 274 168 expr if ($f1 == 1 \, 2 \, $f1);
#X connect 0 0 6 0;
#X connect 1 0 4 0;
#X connect 4 1 2 1;
#X connect 4 1 5 0;
#X connect 5 0 0 0;
#X connect 6 0 2 0;
#X restore 130 770 pd intervals;
#X obj 246 290 tabread intervals;
#X obj 175 364 s f_hz;
#X obj 133 330 *;
#X floatatom 246 314 5 0 0 0 - - -;
#X obj 246 266 hradio 15 1 1 9 empty empty empty 0 -8 0 10 -262144
-1 -1 5;
#X obj 93 281 t b b;
#X text 165 291 Freq \, Hz;
#X connect 0 0 11 0;
#X connect 1 0 96 0;
#X connect 3 0 4 0;
#X connect 4 0 1 0;
#X connect 5 0 6 0;
#X connect 6 0 17 0;
#X connect 7 0 8 0;
#X connect 8 0 22 0;
#X connect 9 0 0 0;
#X connect 10 0 9 1;
#X connect 10 0 11 1;
#X connect 11 0 12 0;
#X connect 12 0 64 0;
#X connect 13 0 12 1;
#X connect 14 0 16 0;
#X connect 15 0 14 0;
#X connect 16 0 18 0;
#X connect 17 0 15 0;
#X connect 18 0 65 0;
#X connect 19 0 15 1;
#X connect 19 0 16 1;
#X connect 20 0 17 1;
#X connect 20 0 18 1;
#X connect 21 0 23 0;
#X connect 22 0 21 0;
#X connect 23 0 66 0;
#X connect 24 0 22 1;
#X connect 24 0 23 1;
#X connect 25 0 29 0;
#X connect 26 0 28 0;
#X connect 27 0 26 0;
#X connect 28 0 67 0;
#X connect 29 0 27 0;
#X connect 30 0 28 1;
#X connect 31 0 27 1;
#X connect 32 0 36 0;
#X connect 33 0 35 0;
#X connect 34 0 33 0;
#X connect 35 0 68 0;
#X connect 36 0 34 0;
#X connect 37 0 34 1;
#X connect 37 0 35 1;
#X connect 38 0 42 0;
#X connect 39 0 41 0;
#X connect 40 0 39 0;
#X connect 41 0 69 0;
#X connect 42 0 40 0;
#X connect 43 0 40 1;
#X connect 43 0 41 1;
#X connect 44 0 49 0;
#X connect 45 0 47 0;
#X connect 46 0 45 0;
#X connect 47 0 70 0;
#X connect 48 0 46 1;
#X connect 48 0 47 1;
#X connect 49 0 46 0;
#X connect 50 0 53 0;
#X connect 51 0 71 0;
#X connect 52 0 51 0;
#X connect 53 0 52 0;
#X connect 54 0 57 0;
#X connect 55 0 59 0;
#X connect 56 0 55 0;
#X connect 57 0 56 0;
#X connect 58 0 56 1;
#X connect 59 0 72 0;
#X connect 60 0 59 1;
#X connect 61 0 52 1;
#X connect 64 0 74 0;
#X connect 65 0 75 0;
#X connect 66 0 76 0;
#X connect 67 0 77 0;
#X connect 68 0 78 0;
#X connect 69 0 79 0;
#X connect 70 0 80 0;
#X connect 71 0 81 0;
#X connect 72 0 82 0;
#X connect 83 0 86 0;
#X connect 83 0 88 0;
#X connect 84 0 89 0;
#X connect 85 0 84 0;
#X connect 86 0 85 0;
#X connect 87 0 83 0;
#X connect 94 0 97 0;
#X connect 96 0 9 0;
#X connect 96 0 95 0;
#X connect 97 0 96 1;
#X connect 98 0 94 0;
#X connect 98 0 99 0;
#X connect 99 0 2 0;
#X connect 99 1 1 0;
