#N canvas 0 22 1440 852 10;
#X obj 53 495 osc~;
#X floatatom 53 359 5 0 0 0 - - -;
#X obj 55 253 bng 30 250 50 0 strike empty empty 17 7 0 10 -262144
-1 -1;
#X obj 53 318 loadbang;
#X msg 53 338 44.5;
#X obj 95 375 s f_hz;
#X obj 162 415 r f_hz;
#X obj 162 437 * 2.02;
#X obj 283 446 r f_hz;
#X obj 283 468 * 2.67;
#X obj 53 470 +~;
#X obj 96 453 osc~ 29;
#X obj 53 518 *~;
#X obj 53 571 *~;
#X obj 68 548 osc~ 1.67;
#X obj 162 521 osc~;
#X obj 162 497 +~;
#X obj 162 545 *~;
#X obj 162 472 +~;
#X obj 162 571 *~;
#X obj 211 480 osc~ 1.67;
#X obj 211 455 osc~ 15;
#X obj 283 542 osc~;
#X obj 283 517 +~;
#X obj 283 565 *~;
#X obj 326 500 osc~ 12.5;
#X obj 403 445 r f_hz;
#X obj 403 541 osc~;
#X obj 403 516 +~;
#X obj 403 564 *~;
#X obj 403 467 * 5.32;
#X obj 446 547 osc~ 32;
#X obj 446 499 osc~ 21;
#X obj 513 446 r f_hz;
#X obj 513 542 osc~;
#X obj 513 517 +~;
#X obj 513 565 *~;
#X obj 513 468 * 5.84;
#X obj 556 500 osc~ 15;
#X obj 619 445 r f_hz;
#X obj 619 541 osc~;
#X obj 619 516 +~;
#X obj 619 564 *~;
#X obj 619 467 * 6.6;
#X obj 662 499 osc~ 20;
#X obj 726 446 r f_hz;
#X obj 726 542 osc~;
#X obj 726 517 +~;
#X obj 726 565 *~;
#X obj 769 500 osc~ 20;
#X obj 726 468 * 8.83;
#X obj 836 445 r f_hz;
#X obj 836 541 osc~;
#X obj 836 516 +~;
#X obj 836 467 * 9.98;
#X obj 946 446 r f_hz;
#X obj 946 542 osc~;
#X obj 946 517 +~;
#X obj 946 468 * 14.09;
#X obj 989 500 osc~ 19;
#X obj 946 568 *~;
#X obj 989 551 osc~ 10;
#X obj 879 499 osc~ 29;
#N canvas 720 22 720 415 exp_env 0;
#N canvas 0 22 450 300 (subpatch) 0;
#X array exp_env 64 float 1;
#A 0 0.5 0.25 0.125 0.0625 0.03125 0.015625 0.0078125 0.00390625 0.00195312
0.000976562 0.000488281 0.000244141 0.00012207 6.10352e-05 3.05176e-05
1.52588e-05 7.62939e-06 3.8147e-06 1.90735e-06 9.53674e-07 4.76837e-07
2.38419e-07 1.19209e-07 5.96046e-08 2.98023e-08 1.49012e-08 7.45058e-09
3.72529e-09 1.86265e-09 9.31323e-10 4.65661e-10 2.32831e-10 1.16415e-10
5.82077e-11 2.91038e-11 1.45519e-11 7.27596e-12 3.63798e-12 1.81899e-12
9.09495e-13 4.54747e-13 2.27374e-13 1.13687e-13 5.68434e-14 2.84217e-14
1.42109e-14 7.10543e-15 3.55271e-15 1.77636e-15 8.88178e-16 4.44089e-16
2.22045e-16 1.11022e-16 5.55112e-17 2.77556e-17 1.38778e-17 6.93889e-18
3.46945e-18 1.73472e-18 8.67362e-19 4.33681e-19 2.1684e-19 1.0842e-19
5.42101e-20;
#X coords 0 1 63 0 200 140 1;
#X restore 306 140 graph;
#X obj 122 250 tabwrite exp_env;
#X obj 157 206 bng 15 250 50 0 empty empty empty 17 7 0 10 -262144
-1 -1;
#X obj 122 179 expr ($f1 - ($f1/2));
#X obj 122 156 f;
#X obj 122 110 t b;
#X msg 137 133 64;
#X obj 122 205 / 64;
#X obj 157 226 kalashnikov 64;
#X connect 2 0 8 0;
#X connect 3 0 4 1;
#X connect 3 0 7 0;
#X connect 4 0 3 0;
#X connect 5 0 4 0;
#X connect 6 0 4 1;
#X connect 7 0 1 0;
#X connect 8 1 1 1;
#X connect 8 1 5 0;
#X restore 53 295 pd exp_env;
#X obj 491 725 freeverb~;
#X obj 491 751 dac~;
#X text 57 12 Anis Haron | www.anisharon.com;
#X obj 53 603 exp_env 0.99 100;
#X obj 162 600 exp_env 0.9 85;
#X obj 283 601 exp_env 0.99 95;
#X obj 403 600 exp_env 0.25 55;
#X obj 513 601 exp_env 0.05 65;
#X obj 619 600 exp_env 0.03 55;
#X obj 726 601 exp_env 0.025 45;
#X obj 836 600 exp_env 0.015 65;
#X obj 946 601 exp_env 0.005 60;
#X text 56 51 Gong ageng synth. Based on Lydia Ayers & Andrew Horner's
paper \, SYNTHESIZING A JAVANESE GONG AGENG.;
#X connect 0 0 12 0;
#X connect 1 0 5 0;
#X connect 1 0 10 0;
#X connect 3 0 4 0;
#X connect 4 0 1 0;
#X connect 6 0 7 0;
#X connect 7 0 18 0;
#X connect 8 0 9 0;
#X connect 9 0 23 0;
#X connect 10 0 0 0;
#X connect 11 0 10 1;
#X connect 11 0 12 1;
#X connect 12 0 13 0;
#X connect 13 0 67 0;
#X connect 14 0 13 1;
#X connect 15 0 17 0;
#X connect 16 0 15 0;
#X connect 17 0 19 0;
#X connect 18 0 16 0;
#X connect 19 0 68 0;
#X connect 20 0 16 1;
#X connect 20 0 17 1;
#X connect 21 0 18 1;
#X connect 21 0 19 1;
#X connect 22 0 24 0;
#X connect 23 0 22 0;
#X connect 24 0 69 0;
#X connect 25 0 23 1;
#X connect 25 0 24 1;
#X connect 26 0 30 0;
#X connect 27 0 29 0;
#X connect 28 0 27 0;
#X connect 29 0 70 0;
#X connect 30 0 28 0;
#X connect 31 0 29 1;
#X connect 32 0 28 1;
#X connect 33 0 37 0;
#X connect 34 0 36 0;
#X connect 35 0 34 0;
#X connect 36 0 71 0;
#X connect 37 0 35 0;
#X connect 38 0 35 1;
#X connect 38 0 36 1;
#X connect 39 0 43 0;
#X connect 40 0 42 0;
#X connect 41 0 40 0;
#X connect 42 0 72 0;
#X connect 43 0 41 0;
#X connect 44 0 41 1;
#X connect 44 0 42 1;
#X connect 45 0 50 0;
#X connect 46 0 48 0;
#X connect 47 0 46 0;
#X connect 48 0 73 0;
#X connect 49 0 47 1;
#X connect 49 0 48 1;
#X connect 50 0 47 0;
#X connect 51 0 54 0;
#X connect 52 0 74 0;
#X connect 53 0 52 0;
#X connect 54 0 53 0;
#X connect 55 0 58 0;
#X connect 56 0 60 0;
#X connect 57 0 56 0;
#X connect 58 0 57 0;
#X connect 59 0 57 1;
#X connect 60 0 75 0;
#X connect 61 0 60 1;
#X connect 62 0 53 1;
#X connect 64 0 65 0;
#X connect 64 1 65 1;
#X connect 67 0 64 1;
#X connect 68 0 64 0;
#X connect 69 0 64 1;
#X connect 69 0 64 0;
#X connect 70 0 64 0;
#X connect 71 0 64 1;
#X connect 72 0 64 0;
#X connect 73 0 64 1;
#X connect 74 0 64 0;
#X connect 75 0 64 1;
